<?xml version="1.0" standalone="no"?>
<!DOCTYPE svg PUBLIC "-//W3C//DTD SVG 20010904//EN"
 "http://www.w3.org/TR/2001/REC-SVG-20010904/DTD/svg10.dtd">
<svg version="1.0" xmlns="http://www.w3.org/2000/svg"
 width="260.000000pt" height="260.000000pt" viewBox="0 0 260.000000 260.000000"
 preserveAspectRatio="xMidYMid meet">
<metadata>
Created by potrace 1.11, written by Peter Selinger 2001-2013
</metadata>
<g transform="translate(0.000000,260.000000) scale(0.100000,-0.100000)"
fill="#000000" stroke="none">
<path d="M0 1300 l0 -1300 446 0 445 0 -34 63 c-154 282 -197 367 -197 383 1
14 5 11 16 -11 9 -16 22 -34 28 -40 7 -5 37 -39 67 -75 67 -81 138 -147 261
-244 l96 -76 291 0 c195 0 292 4 296 11 4 6 9 38 12 72 3 34 10 67 15 73 5 7
8 40 7 74 -1 34 2 65 8 68 5 4 20 24 33 46 29 49 33 43 58 -108 22 -126 21
-156 -4 -131 -23 22 -60 0 -67 -39 -3 -17 -8 -39 -12 -48 -7 -17 17 -18 414
-18 l421 0 0 315 c0 185 -4 315 -9 315 -5 0 -17 3 -26 6 -13 5 -15 2 -10 -22
4 -19 3 -24 -3 -16 -5 7 -21 14 -36 16 -16 2 -32 9 -37 17 -9 16 -59 23 -59 8
0 -5 5 -9 12 -9 6 0 8 -3 5 -7 -4 -3 -19 0 -33 8 -23 12 -27 11 -39 -5 -13
-17 -15 -17 -36 3 -22 21 -37 25 -71 22 -10 -1 -27 7 -39 18 -29 27 -79 38
-90 20 -5 -8 -9 -9 -9 -3 0 7 -25 11 -70 10 -59 -1 -70 -4 -70 -18 0 -10 -4
-18 -10 -18 -5 0 -10 -7 -10 -16 0 -22 -31 -115 -47 -140 -7 -11 -10 -24 -6
-27 3 -4 -1 -7 -11 -7 -9 0 -22 -11 -28 -25 -13 -28 -62 -66 -52 -40 4 8 1 15
-6 15 -6 0 -14 -9 -17 -19 -3 -12 -17 -21 -40 -26 -20 -3 -43 -13 -51 -21 -13
-13 -17 -13 -33 2 -17 15 -19 15 -25 0 -3 -9 -10 -13 -15 -10 -5 3 -7 9 -5 13
3 4 -4 8 -15 8 -23 2 -26 -22 -3 -31 10 -4 13 -13 9 -26 -5 -14 -2 -20 9 -20
9 0 16 6 16 13 0 8 7 14 15 14 16 0 18 -7 9 -31 -3 -8 -12 -12 -21 -9 -23 9
-43 -32 -44 -89 0 -10 -5 -18 -10 -18 -6 0 -7 -4 -4 -10 3 -5 1 -10 -5 -10 -6
0 -9 -4 -6 -8 2 -4 -15 -20 -39 -34 -36 -22 -44 -24 -49 -12 -3 9 -1 12 4 9
14 -9 12 8 -2 24 -10 11 -10 13 0 7 8 -5 12 0 12 12 0 11 -7 22 -15 26 -9 3
-15 0 -15 -9 0 -8 -4 -15 -10 -15 -5 0 -10 -10 -11 -22 -1 -21 -1 -22 -7 -3
-8 22 -32 32 -32 13 0 -7 -5 -5 -11 5 -5 9 -7 23 -3 30 6 9 5 9 -7 0 -20 -16
-58 -13 -52 4 4 9 0 11 -11 7 -9 -3 -16 -14 -17 -23 0 -12 -2 -11 -8 4 -5 11
-14 20 -22 20 -8 0 -13 9 -12 20 1 11 0 14 -3 8 -3 -7 -10 -13 -15 -13 -6 0
-7 5 -3 12 5 7 2 9 -9 5 -9 -3 -18 -1 -20 6 -3 7 -4 -3 -3 -22 0 -19 7 -36 14
-39 6 -2 12 1 12 7 0 6 -4 11 -10 11 -5 0 -10 5 -10 11 0 8 4 9 13 0 8 -6 17
-8 20 -4 4 3 7 -1 7 -10 0 -23 -31 -52 -40 -36 -5 6 -13 8 -20 4 -9 -5 -11 -4
-6 4 4 6 2 19 -6 28 -9 12 -9 15 0 9 6 -4 12 -3 12 2 0 12 -29 24 -40 17 -4
-3 -7 -18 -6 -35 1 -16 -2 -30 -7 -30 -5 0 -7 11 -5 25 6 30 -15 34 -32 8 -10
-16 -11 -16 -7 4 4 16 1 20 -12 16 -9 -3 -4 6 12 21 15 15 27 32 27 38 0 7 -9
2 -20 -10 -12 -12 -25 -22 -30 -22 -5 0 8 18 30 40 22 22 42 40 45 40 3 0 17
-7 31 -16 22 -15 24 -15 18 0 -8 21 12 21 24 0 6 -11 12 -13 16 -6 5 8 15 8
32 2 37 -15 144 -9 144 7 0 7 5 13 11 13 5 0 7 5 4 10 -3 6 -2 10 4 10 5 0 12
-6 14 -12 3 -8 6 -6 6 5 1 9 -7 25 -17 35 -10 10 -16 24 -14 30 2 7 2 12 0 12
-57 7 -85 14 -94 25 -8 11 -12 11 -20 0 -5 -9 -31 -15 -61 -17 -29 -2 -53 -7
-53 -12 0 -4 12 -5 28 -1 17 4 24 3 17 -3 -5 -6 -19 -12 -30 -14 -12 -2 -21
-13 -23 -26 -2 -12 -10 -22 -19 -22 -9 0 -13 6 -10 14 3 9 -4 21 -19 30 -13 9
-24 13 -24 8 0 -7 -48 -9 -60 -2 -3 2 -14 3 -25 4 -12 1 -20 8 -19 18 1 11 -4
14 -14 11 -12 -5 -14 -1 -10 15 5 19 4 20 -14 11 -13 -7 -18 -7 -14 -1 3 6 22
16 41 22 40 13 68 62 58 102 -3 13 -2 20 2 16 5 -4 13 -4 20 2 13 11 95 -15
107 -33 4 -7 8 -9 8 -4 0 4 18 -4 39 -17 21 -14 41 -22 45 -19 3 3 12 1 20 -6
18 -15 137 -7 195 13 24 9 56 16 70 16 23 0 28 -6 39 -45 7 -25 12 -54 12 -65
0 -13 11 -25 33 -34 29 -12 34 -11 50 5 20 21 22 36 5 42 -10 3 -10 8 2 21 13
16 12 20 -5 32 -18 13 -14 29 8 29 5 0 12 6 15 14 3 8 0 11 -5 8 -5 -3 -9 9
-9 28 1 18 5 31 9 28 5 -3 4 4 -3 17 -7 14 -17 20 -28 16 -15 -5 -15 -5 -1 6
20 17 30 56 15 61 -8 3 -7 9 3 21 13 15 15 15 33 -1 11 -9 17 -25 15 -35 -3
-10 -1 -18 4 -18 5 0 9 6 9 13 0 9 3 8 9 -2 6 -9 10 -4 13 17 2 17 1 29 -3 26
-4 -2 -12 3 -17 13 -10 17 -82 28 -82 12 0 -5 -6 -8 -12 -7 -7 2 -12 -5 -10
-14 2 -10 -2 -18 -9 -18 -6 0 -9 -7 -5 -15 3 -8 1 -15 -3 -15 -5 0 -7 -9 -4
-20 3 -11 10 -20 16 -20 5 0 3 -8 -7 -18 -26 -29 -83 -40 -191 -35 -139 6
-156 7 -188 21 -16 7 -34 12 -41 12 -23 0 -26 13 -11 37 10 15 13 32 9 50 -6
23 -5 25 8 13 15 -14 17 -44 5 -56 -15 -15 -6 -22 24 -19 17 3 37 9 43 14 9 7
23 5 46 -8 38 -20 80 -17 80 7 0 13 3 12 20 -3 19 -18 20 -17 20 5 0 20 2 21
17 9 15 -13 16 -11 9 14 -6 26 -5 27 20 23 26 -5 26 -5 8 16 -13 15 -14 19 -4
14 8 -4 5 1 -6 11 -12 10 -25 28 -28 40 -6 18 -2 22 20 25 15 2 29 9 32 16 6
21 -28 13 -52 -12 -38 -37 -53 -38 -98 -8 -22 15 -52 35 -67 44 -28 19 -58 23
-80 9 -11 -7 -8 -13 14 -27 20 -13 29 -14 34 -5 9 14 37 5 45 -16 8 -19 -3
-63 -16 -63 -5 0 -6 9 -3 20 4 13 1 22 -8 25 -22 9 -65 -12 -72 -34 -8 -27
-25 -27 -18 -1 4 16 2 19 -11 14 -10 -4 -15 -13 -12 -20 3 -8 -1 -14 -10 -14
-8 0 -12 5 -9 10 9 14 -9 12 -23 -2 -10 -10 -14 -8 -18 10 -9 31 -23 27 -31
-8 -3 -17 -8 -28 -11 -25 -3 2 -12 -1 -21 -8 -14 -11 -14 -10 -2 6 20 25 5 34
-21 11 -17 -14 -19 -15 -9 -2 7 9 10 22 7 27 -4 6 10 25 30 43 70 62 94 87 94
98 0 23 -11 16 -137 -97 -54 -47 -69 -72 -32 -53 11 7 23 9 27 6 8 -8 -31 -36
-41 -29 -4 2 -14 0 -22 -7 -10 -8 -11 -18 -4 -39 6 -18 6 -37 0 -54 -7 -17 -7
-27 -1 -27 6 0 10 5 10 11 0 5 5 7 12 3 6 -4 8 -3 5 4 -4 5 -3 21 2 34 9 21
10 21 12 3 1 -11 0 -24 -1 -30 -1 -5 -4 -25 -5 -43 -4 -35 -15 -58 -15 -29 0
21 -14 22 -30 2 -16 -19 -40 -19 -40 0 0 8 -4 15 -10 15 -5 0 -10 -4 -10 -10
0 -5 -7 -7 -15 -4 -8 4 -15 12 -15 20 0 19 -16 18 -24 -1 -3 -8 -1 -15 5 -15
15 0 -2 -54 -20 -65 -22 -13 -42 -15 -35 -4 3 5 10 7 15 4 5 -4 9 3 9 14 0 18
-3 19 -26 11 -25 -10 -25 -9 -21 33 2 23 2 34 0 24 -4 -14 -7 -16 -19 -6 -7 6
-12 15 -9 19 3 5 1 11 -5 15 -5 3 -10 1 -10 -4 0 -6 -5 -11 -11 -11 -5 0 -8 4
-4 9 3 6 -3 14 -12 20 -16 9 -16 12 -3 21 9 6 10 10 3 10 -17 0 -21 33 -6 45
8 7 9 15 3 25 -5 8 -13 11 -17 6 -4 -5 -2 -11 6 -14 9 -3 2 -10 -19 -18 -17
-8 -37 -11 -43 -7 -6 4 -3 9 9 14 15 6 15 8 3 8 -22 1 -44 -25 -29 -34 5 -3
10 -14 9 -23 0 -10 -3 -12 -5 -5 -3 7 -11 10 -18 7 -17 -7 -30 66 -14 81 8 7
9 6 4 -2 -3 -6 -2 -15 4 -18 14 -8 10 77 -3 86 -5 4 -4 15 2 28 10 17 9 20 -4
15 -14 -6 -20 19 -16 76 0 10 -1 11 -5 3 -10 -22 -61 -14 -93 13 -17 14 -31
30 -31 35 0 4 -12 34 -26 65 -23 51 -25 66 -25 194 0 155 4 174 37 242 34 67
86 90 111 49 24 -39 54 -199 34 -187 -4 3 -16 -1 -26 -8 -14 -10 -16 -21 -11
-49 7 -36 7 -36 26 -17 11 11 20 25 20 30 0 6 4 10 8 10 5 0 10 21 10 46 1 25
9 60 16 79 8 19 18 55 21 80 4 25 11 48 16 51 5 3 9 15 9 27 0 12 14 49 30 82
16 33 30 65 30 71 0 7 8 11 17 10 12 -1 18 7 20 24 14 144 43 258 80 308 22
29 54 47 37 21 -3 -6 6 -3 22 7 29 20 84 28 84 13 0 -5 11 -4 25 1 17 6 25 6
25 -1 0 -6 4 -8 9 -5 5 4 42 2 83 -4 40 -5 100 -12 133 -15 83 -7 85 -7 85
-16 0 -14 59 -20 81 -9 14 8 19 8 15 1 -11 -16 75 -4 94 14 9 8 22 15 28 15 7
0 12 5 12 10 0 6 9 10 19 10 11 0 26 9 34 20 8 11 17 17 20 13 19 -19 3 20
-18 44 -22 25 -24 26 -25 8 -1 -15 -6 -11 -18 15 -8 19 -15 39 -14 43 2 5 -2
6 -7 3 -5 -4 -12 2 -16 13 -3 11 -13 22 -21 25 -10 4 -8 -5 8 -27 23 -31 33
-57 23 -57 -3 0 -16 17 -29 38 -13 20 -49 65 -81 100 -68 74 -56 83 16 11 88
-88 71 -45 -24 60 -22 24 -22 24 -1 13 55 -29 204 -203 204 -238 0 -17 27 -37
39 -29 17 10 -37 87 -144 204 -57 63 -54 67 9 12 l29 -26 -28 38 c-15 20 -30
37 -34 37 -3 0 -12 9 -19 21 -12 18 -11 19 5 10 47 -25 135 -137 174 -221 9
-19 24 -42 34 -50 17 -14 17 -13 10 10 -7 23 -41 78 -55 90 -14 12 -85 126
-82 133 1 4 -4 7 -11 7 -8 0 -22 9 -32 20 -11 12 -13 20 -6 20 9 0 9 5 0 23
-7 12 -11 24 -10 27 3 5 -60 44 -97 60 -40 17 -100 14 -424 -19 -122 -13 -138
-17 -216 -53 -57 -26 -66 -28 -102 -17 -49 15 -68 8 -72 -28 -4 -34 -23 -28
-24 7 -1 36 -14 60 -33 60 -10 1 -7 6 10 15 15 8 87 21 162 28 74 8 143 19
153 25 14 8 -100 11 -428 12 l-448 0 0 -1300z m1515 1210 c3 -5 2 -10 -4 -10
-5 0 -13 5 -16 10 -3 6 -2 10 4 10 5 0 13 -4 16 -10z m-7 -310 c9 -14 -8 -3
-39 26 -144 136 -160 152 -70 78 52 -44 101 -90 109 -104z m-898 135 c0 -15
-18 -30 -27 -22 -2 3 -2 15 2 26 7 23 25 19 25 -4z m871 -167 c6 -12 -25 14
-70 59 -44 46 -81 88 -81 95 0 15 134 -121 151 -154z m-206 54 c-3 -3 -11 0
-18 7 -9 10 -8 11 6 5 10 -3 15 -9 12 -12z m-925 -72 c0 -5 -7 -7 -15 -4 -8 4
-15 8 -15 10 0 2 7 4 15 4 8 0 15 -4 15 -10z m55 -610 c3 -5 1 -10 -4 -10 -6
0 -11 5 -11 10 0 6 2 10 4 10 3 0 8 -4 11 -10z m-86 -32 c-8 -14 -14 -18 -17
-10 -4 13 17 46 25 38 3 -2 -1 -15 -8 -28z m-103 -418 c43 0 46 -24 4 -39 -24
-8 -38 -7 -65 6 -19 9 -35 20 -35 24 0 10 31 18 48 13 8 -2 29 -4 48 -4z m120
-203 l21 -32 -29 -1 c-19 -1 -25 2 -17 7 11 6 10 9 -3 14 -10 4 -14 14 -11 26
7 26 15 24 39 -14z m241 -149 c-3 -8 -6 -5 -6 6 -1 11 2 17 5 13 3 -3 4 -12 1
-19z m716 -24 c4 -23 -2 -23 -30 -1 -15 11 -9 24 11 24 8 0 16 -11 19 -23z
m207 16 c0 -5 -4 -10 -10 -10 -5 0 -10 5 -10 10 0 6 5 10 10 10 6 0 10 -4 10
-10z m-470 -35 c0 -8 -4 -15 -10 -15 -5 0 -7 7 -4 15 4 8 8 15 10 15 2 0 4 -7
4 -15z m470 11 c0 -3 -4 -8 -10 -11 -5 -3 -10 -1 -10 4 0 6 5 11 10 11 6 0 10
-2 10 -4z m-312 -30 c-2 -17 -6 -22 -13 -16 -7 6 -16 5 -23 -2 -9 -9 -12 -9
-12 -1 0 10 37 43 47 43 2 0 2 -11 1 -24z m286 6 c2 -4 -5 -9 -17 -9 -17 -2
-19 0 -7 7 18 12 18 12 24 2z m226 -18 c0 -2 -7 -4 -15 -4 -8 0 -15 4 -15 10
0 5 7 7 15 4 8 -4 15 -8 15 -10z m382 9 c-6 -2 -10 -9 -6 -14 9 -15 -25 -22
-41 -9 -21 18 -9 30 28 29 18 0 26 -3 19 -6z m-1435 -45 c2 -18 0 -20 -7 -8
-12 18 -13 30 -2 30 4 0 9 -10 9 -22z m553 -9 c0 -5 -4 -9 -8 -9 -5 0 -9 7 -9
15 0 8 4 12 9 9 4 -3 8 -9 8 -15z m-560 -54 c0 -11 -29 -11 -33 -1 -4 10 1 12
14 9 10 -3 19 -7 19 -8z m618 -14 c3 -8 -1 -12 -9 -9 -7 2 -15 10 -17 17 -3 8
1 12 9 9 7 -2 15 -10 17 -17z m87 -22 c7 -7 -1 -9 -24 -7 -19 2 -37 9 -39 17
-4 11 2 12 24 7 16 -4 34 -12 39 -17z m-445 -33 c0 -3 -4 -8 -10 -11 -5 -3
-10 -1 -10 4 0 6 5 11 10 11 6 0 10 -2 10 -4z m467 -158 c-3 -8 -6 -5 -6 6 -1
11 2 17 5 13 3 -3 4 -12 1 -19z m26 7 c4 -8 3 -16 -1 -19 -4 -3 -9 4 -9 15 -2
23 3 25 10 4z m-53 -4 c0 -5 -9 -7 -20 -4 -11 3 -20 7 -20 9 0 2 9 4 20 4 11
0 20 -4 20 -9z m360 -35 c0 -3 -4 -8 -10 -11 -5 -3 -10 -1 -10 4 0 6 5 11 10
11 6 0 10 -2 10 -4z m-267 -226 c-7 -28 -13 -25 -13 6 0 14 4 23 9 20 5 -3 7
-15 4 -26z"/>
<path d="M2528 2547 c-42 -24 -50 -43 -15 -33 12 3 37 6 55 6 25 0 32 4 32 19
0 10 -7 22 -16 25 -19 7 -12 9 -56 -17z"/>
<path d="M2576 2454 c-20 -19 -20 -30 -1 -38 22 -8 18 -33 -5 -39 -14 -4 -20
-14 -20 -34 0 -35 -14 -58 -29 -49 -6 4 -16 27 -22 52 -14 54 -23 60 -54 40
-48 -32 -59 -60 -45 -119 6 -28 11 -82 10 -119 -1 -63 1 -69 33 -104 l33 -37
26 24 c14 13 42 39 62 58 l36 34 0 173 c0 96 -2 174 -4 174 -3 0 -12 -7 -20
-16z"/>
<path d="M1810 2264 c0 -3 9 -29 21 -57 11 -29 25 -62 30 -75 5 -12 19 -27 31
-32 13 -6 31 -16 41 -22 22 -16 37 3 29 35 -3 12 -7 16 -10 9 -2 -6 -21 10
-43 36 -50 60 -99 113 -99 106z"/>
<path d="M2234 2235 c-7 -30 3 -95 15 -95 12 0 21 37 21 83 0 43 -26 52 -36
12z"/>
<path d="M1755 2210 c3 -5 8 -10 11 -10 2 0 4 5 4 10 0 6 -5 10 -11 10 -5 0
-7 -4 -4 -10z"/>
<path d="M1970 2000 c0 -5 5 -10 11 -10 5 0 7 5 4 10 -3 6 -8 10 -11 10 -2 0
-4 -4 -4 -10z"/>
<path d="M2548 1974 c-42 -31 -50 -43 -69 -107 -30 -101 -29 -100 -93 -121
-66 -22 -126 -70 -108 -88 9 -9 28 -6 77 11 36 13 76 21 90 19 14 -3 25 -1 25
4 0 4 11 14 25 20 18 8 23 16 19 33 -6 23 6 58 56 173 17 40 30 77 28 82 -2 5
-24 -7 -50 -26z"/>
<path d="M1984 1963 c3 -10 17 -63 31 -118 14 -55 28 -101 29 -103 8 -7 36 31
36 47 0 47 -53 162 -83 180 -16 11 -18 10 -13 -6z"/>
<path d="M2580 1750 c-12 -7 -14 -27 -12 -86 1 -43 5 -80 7 -83 16 -15 26 25
23 97 -3 69 -5 80 -18 72z"/>
<path d="M952 1505 c-17 -14 -38 -25 -47 -25 -9 0 -19 -9 -22 -20 -3 -11 -9
-20 -14 -20 -5 0 -9 -6 -9 -14 0 -8 -9 -21 -20 -29 -11 -8 -17 -16 -14 -19 8
-8 44 3 44 13 0 5 7 9 15 9 8 0 15 6 15 14 0 26 18 27 43 4 26 -25 21 -39 -20
-52 -22 -7 -63 -43 -63 -55 0 -7 31 -8 106 -2 7 1 14 10 17 21 8 29 21 25 38
-12 11 -26 21 -34 47 -36 29 -3 34 1 47 32 10 23 20 33 29 30 19 -7 28 -45 14
-61 -6 -8 -9 -15 -7 -18 9 -8 89 18 89 29 0 6 13 17 29 24 17 7 32 23 35 37 4
14 13 25 21 25 18 0 18 4 4 53 -10 36 -12 38 -40 32 -17 -4 -36 -2 -43 4 -15
13 -154 34 -167 25 -5 -3 -9 0 -9 5 0 8 -7 7 -20 -1 -16 -10 -22 -10 -32 1
-11 11 -10 12 2 6 13 -8 13 -7 1 8 -18 23 -34 21 -69 -8z"/>
<path d="M2567 1511 c6 -25 -26 -33 -50 -12 -22 19 -36 6 -43 -40 l-6 -35 41
4 c33 3 41 1 41 -13 0 -9 9 -28 20 -43 12 -14 17 -29 12 -34 -10 -10 -102 27
-114 45 -11 16 -58 -36 -58 -64 0 -23 8 -24 38 -3 20 14 23 14 28 0 3 -9 21
-21 40 -28 25 -9 34 -18 34 -35 0 -13 9 -28 20 -35 28 -18 25 -42 -9 -81 -29
-33 -30 -35 -21 -97 11 -81 25 -95 45 -47 12 29 15 82 15 253 l0 216 -24 -6
c-15 -4 -28 -1 -32 6 -5 7 -2 9 8 6 19 -8 51 28 44 48 -8 22 -35 17 -29 -5z"/>
<path d="M1654 1467 c-20 -12 -25 -13 -61 -15 -13 -1 -23 -9 -23 -17 0 -8 -5
-14 -12 -12 -6 1 -14 -6 -16 -15 -2 -14 1 -16 14 -11 11 4 15 3 11 -4 -9 -15
29 -23 44 -9 9 8 10 8 5 -1 -4 -7 -22 -20 -42 -29 -72 -34 -47 -104 38 -104
24 0 37 4 33 10 -4 6 -11 8 -16 5 -17 -11 -9 12 11 30 22 20 21 21 38 -17 16
-39 60 -48 84 -18 10 12 18 28 18 36 0 17 5 17 31 4 10 -6 19 -17 19 -25 0 -8
9 -15 19 -15 11 0 23 -4 26 -10 9 -14 45 -13 45 2 0 6 -18 28 -40 50 -31 28
-36 38 -23 38 15 0 16 2 3 10 -12 8 -9 10 13 10 35 0 34 12 -4 44 -26 22 -61
33 -72 24 -2 -2 -14 4 -28 14 -40 26 -93 37 -115 25z"/>
<path d="M461 1421 c-11 -27 -21 -58 -20 -68 0 -13 3 -12 10 7 6 13 21 39 35
57 23 30 25 53 5 53 -5 0 -18 -22 -30 -49z"/>
<path d="M2096 1302 c-3 -5 3 -43 14 -83 l19 -74 -2 79 c-1 50 -6 81 -14 83
-6 2 -14 0 -17 -5z"/>
<path d="M2387 1221 c-19 -33 -22 -51 -7 -51 10 0 40 52 40 70 0 19 -16 10
-33 -19z"/>
<path d="M622 1010 c0 -14 2 -19 5 -12 2 6 2 18 0 25 -3 6 -5 1 -5 -13z"/>
<path d="M630 892 c0 -12 3 -12 18 -1 9 7 19 14 21 16 2 1 -6 1 -18 0 -11 -1
-21 -8 -21 -15z"/>
<path d="M1590 840 c0 -10 -8 -23 -17 -29 -15 -8 -16 -12 -5 -22 6 -7 12 -9
12 -5 0 5 7 3 15 -4 22 -18 43 -6 40 25 -5 45 -45 77 -45 35z"/>
<path d="M674 805 c-3 -8 -4 -20 -2 -27 3 -7 -4 -21 -13 -32 -18 -19 -17 -36
2 -36 5 0 9 5 9 11 0 6 7 17 15 26 12 12 13 18 4 29 -6 8 -9 21 -5 29 3 8 3
15 0 15 -2 0 -7 -7 -10 -15z"/>
<path d="M1620 750 c0 -5 5 -10 11 -10 5 0 7 5 4 10 -3 6 -8 10 -11 10 -2 0
-4 -4 -4 -10z"/>
<path d="M1519 633 c-7 -10 -9 -15 -5 -11 5 4 15 3 22 -3 9 -8 11 -5 7 10 -6
25 -7 25 -24 4z"/>
<path d="M1615 640 c3 -5 8 -10 11 -10 2 0 4 5 4 10 0 6 -5 10 -11 10 -5 0 -7
-4 -4 -10z"/>
<path d="M1771 623 c-1 -12 4 -25 9 -28 12 -7 12 2 0 30 -8 19 -9 19 -9 -2z"/>
<path d="M940 595 c0 -8 2 -15 4 -15 2 0 6 7 10 15 3 8 1 15 -4 15 -6 0 -10
-7 -10 -15z"/>
<path d="M1730 559 c0 -8 5 -21 10 -29 8 -12 9 -10 7 7 -4 26 -17 43 -17 22z"/>
<path d="M1145 280 c-3 -5 -1 -10 4 -10 6 0 11 5 11 10 0 6 -2 10 -4 10 -3 0
-8 -4 -11 -10z"/>
<path d="M1761 238 c-1 -15 4 -30 9 -33 12 -7 12 12 0 40 -8 18 -9 17 -9 -7z"/>
<path d="M1310 216 c-15 -15 -13 -39 3 -29 6 4 19 8 27 9 46 3 49 5 43 20 -5
13 -7 13 -14 2 -6 -9 -9 -9 -9 -1 0 14 -36 13 -50 -1z"/>
</g>
</svg>
